# xmcd CD database file
#
# Track frame offsets:
#	150
#	22770
#	46692
#	69300
#
# Disc length: 1241 seconds
#
# Revision: 12
# Processed by: cddbd v1.5.2PL0 Copyright (c) Steve Scherf et al.
# Submitted via: CDex 1.70beta3
#
DISCID=2104d704
DTITLE=Various Artist - Face of Fact -RESOLUTION ver.- - undelete
DYEAR=2006
DGENRE=Anime(J)
TTITLE0=KOTOKO - Face of Fact -RESOLUTION ver.-
TTITLE1=川田まみ - undelete
TTITLE2=KOTOKO - Face of Fact -RESOLUTION ver.- (Instrumental)
TTITLE3=川田まみ - undelete  (Instrumental)
EXTD=YEAR: 2006
EXTT0=
EXTT1=
EXTT2=
EXTT3=
PLAYORDER=
